HIERARCHY
ROOT Hips
{
  OFFSET 0 0 0
  CHANNELS 6 Xposition Yposition Zposition Zrotation Xrotation Yrotation
  JOINT Spine
  {
    OFFSET 0 10 0
    CHANNELS 3 Zrotation Xrotation Yrotation
    JOINT Neck
    {
      OFFSET 0 30 0
      CHANNELS 3 Zrotation Xrotation Yrotation
      JOINT Head
      {
        OFFSET 0 8 0
        CHANNELS 3 Zrotation Xrotation Yrotation
        End Site
        {
          OFFSET 0 10 0
        }
      }
    }
    JOINT LeftArm
    {
      OFFSET 15 30 0
      CHANNELS 3 Zrotation Xrotation Yrotation
      JOINT LeftForeArm
      {
        OFFSET 25 0 0
        CHANNELS 3 Zrotation Xrotation Yrotation
        JOINT LeftHand
        {
          OFFSET 25 0 0
          CHANNELS 3 Zrotation Xrotation Yrotation
          End Site
          {
            OFFSET 10 0 0
          }
        }
      }
    }
    JOINT RightArm
    {
      OFFSET -15 30 0
      CHANNELS 3 Zrotation Xrotation Yrotation
      JOINT RightForeArm
      {
        OFFSET -25 0 0
        CHANNELS 3 Zrotation Xrotation Yrotation
        JOINT RightHand
        {
          OFFSET -25 0 0
          CHANNELS 3 Zrotation Xrotation Yrotation
          End Site
          {
            OFFSET -10 0 0
          }
        }
      }
    }
  }
  JOINT LeftUpLeg
  {
    OFFSET 10 -10 0
    CHANNELS 3 Zrotation Xrotation Yrotation
    JOINT LeftLeg
    {
      OFFSET 0 -35 0
      CHANNELS 3 Zrotation Xrotation Yrotation
      JOINT LeftToe
      {
        OFFSET 0 -40 0
        CHANNELS 3 Zrotation Xrotation Yrotation
        JOINT LeftToeEnd
        {
          OFFSET 0 0 0
          CHANNELS 3 Zrotation Xrotation Yrotation
          End Site
          {
            OFFSET 0 0 15
          }
        }
      }
    }
  }
  JOINT RightUpLeg
  {
    OFFSET -10 -10 0
    CHANNELS 3 Zrotation Xrotation Yrotation
    JOINT RightLeg
    {
      OFFSET 0 -35 0
      CHANNELS 3 Zrotation Xrotation Yrotation
      JOINT RightToe
      {
        OFFSET 0 -40 0
        CHANNELS 3 Zrotation Xrotation Yrotation
        JOINT RightToeEnd
        {
          OFFSET 0 0 0
          CHANNELS 3 Zrotation Xrotation Yrotation
          End Site
          {
            OFFSET 0 0 15
          }
        }
      }
    }
  }
}
MOTION
Frames:	17
Frame Time:	0.0333333
56.0761 86.4339 52.8286 2.75724 -29.1215 -178.376 1.70607 -31.7587 0.553513 -12.4449 9.25904 2.89412 27.9657 16.8686 -2.24635 -94.4604 15.0844 11.9501 9.99671 -1.14087 -10.8071 -1.7341 11.4848 1.12005 87.1866 -2.67442 -14.8682 -9.49139 -2.17598 19.141 0.624121 6.25502 3.8121 1.06523 -37.1355 -11.99 -1.88079 27.493 1.7525 0.696704 -19.5718 3.99317 -3.10601e-018 -1.2424e-017 -1.59028e-015 5.03018 -33.0253 12.9082 0.0339043 22.1522 -1.25334 -0.930949 -18.5415 -7.06029 -8.07563e-017 -9.93923e-017 -0 
56.0909 86.4508 52.8671 2.83895 -29.2157 -178.272 1.64559 -31.7054 0.69522 -12.4572 9.06793 2.92542 28.5421 16.743 -2.18961 -94.4794 16.0775 11.63 10.261 -1.23356 -11.2793 -1.70645 10.4315 1.0475 87.5764 -2.16941 -14.5635 -9.76325 -2.30225 19.6563 0.646885 5.375 3.797 1.15128 -37.302 -11.9822 -1.87936 27.4713 1.75068 0.633491 -19.5507 3.93659 -4.65902e-018 0 -0 5.11619 -33.0981 13.0569 0.0345782 22.0513 -1.27595 -0.96295 -18.5651 -7.10321 -8.07563e-017 9.93923e-017 7.95139e-016 
56.101 86.491 52.8827 2.86806 -29.0814 -178.239 1.6173 -31.4207 0.585918 -12.6843 8.70953 2.94135 29.2976 16.5781 -2.10319 -94.5487 16.6318 11.2949 10.4942 -1.32477 -11.719 -1.73404 10.0688 1.09592 87.8006 -1.83435 -14.2366 -9.97526 -2.39664 20.0415 0.652776 4.94461 3.70961 1.23158 -37.1149 -11.905 -1.86331 27.316 1.72611 0.58908 -19.4483 3.9101 4.65902e-018 0 7.95139e-016 5.10784 -32.8992 12.9456 0.0220366 21.9077 -1.23438 -0.874613 -18.5282 -7.06019 2.48481e-017 -9.93923e-017 1.59028e-015 
56.1129 86.4343 52.9107 2.93023 -29.4146 -178.363 1.70713 -31.8096 0.787657 -12.7256 8.83488 3.16166 30.0015 16.5438 -1.94033 -94.7052 17.5623 11.0638 10.8121 -1.4453 -12.2876 -1.74531 9.23273 1.09007 88.003 -1.28077 -14.0317 -10.0923 -2.44027 20.2248 0.582415 4.55865 3.73033 1.22636 -37.5808 -12.2357 -1.9155 27.5699 1.7612 0.668488 -19.4517 4.32036 -8.62091e-035 6.21202e-018 7.95139e-016 5.2591 -33.3744 12.9696 0.0626119 22.0137 -1.33361 -0.926331 -18.4719 -6.87117 1.86361e-017 9.93923e-017 -2.38542e-015 
56.1486 86.4525 52.9311 2.83264 -29.2785 -178.377 1.44061 -31.4735 0.702641 -12.7725 8.48806 3.19959 30.7395 16.4628 -1.84861 -94.7392 19.1585 10.6654 11.1857 -1.58804 -12.9403 -1.73203 7.84865 0.889071 88.4086 -0.380487 -13.7167 -10.3236 -2.55635 20.6655 0.636685 3.72105 3.73499 1.20012 -37.4204 -12.0869 -1.91713 27.4656 1.75379 0.637456 -19.3973 4.16476 -7.76503e-019 6.21202e-018 1.59028e-015 5.2248 -33.2127 12.9893 0.0547982 21.9939 -1.31617 -1.00511 -18.3862 -7.04422 -1.86361e-017 0 7.95139e-016 
56.1524 86.4742 52.9352 3.00465 -29.3288 -178.27 1.55487 -31.4443 0.690619 -12.9877 8.17862 3.24307 31.526 16.391 -1.77349 -94.8457 20.2315 10.3415 11.5111 -1.73972 -13.5633 -1.7144 6.95906 0.939587 88.5074 0.222095 -13.432 -10.4043 -2.59404 20.815 0.611572 3.23554 3.74483 1.35147 -37.4287 -12.1439 -1.90843 27.3955 1.74425 0.621481 -19.3539 4.26077 1.94126e-019 1.55301e-018 -0 5.36248 -33.163 13.0068 0.0457369 21.8174 -1.30775 -0.900144 -18.4512 -6.95756 -6.21202e-017 -9.93923e-017 7.95139e-016 
56.1681 86.468 52.9118 2.95035 -29.3305 -178.262 1.28873 -31.7568 0.665553 -12.7404 8.78169 3.66433 32.2235 16.4464 -1.4131 -94.911 21.4304 10.3729 11.7863 -1.86124 -14.0581 -1.74221 6.59573 0.929027 88.8692 1.33195 -13.6794 -10.5622 -2.66808 21.0913 0.622137 2.61718 3.80841 1.28827 -37.4365 -12.1263 -1.90333 27.4209 1.738 0.615527 -19.4302 4.21468 1.55301e-018 1.2424e-017 7.95139e-016 5.34479 -33.1343 13.0801 0.0440412 21.8202 -1.31024 -1.02836 -18.4236 -7.11413 -7.45443e-017 -9.93923e-017 -7.95139e-016 
56.1865 86.4686 52.8769 3.02589 -29.3327 -178.263 1.41381 -31.4336 0.677496 -13.1719 7.95785 3.49541 33.157 16.3443 -1.51282 -94.9119 23.0353 9.91506 12.1085 -2.01908 -14.6688 -1.69973 5.13372 0.772034 88.9555 1.97184 -13.5223 -10.6286 -2.70328 21.2547 0.626857 2.35021 3.74178 1.45881 -37.4242 -11.9687 -1.90314 27.4288 1.73165 0.557154 -19.3802 4.13863 -1.35888e-018 0 -7.95139e-016 5.45594 -33.0461 13.1116 0.0350062 21.7028 -1.29905 -0.952384 -18.3217 -7.21957 -1.05604e-016 1.98785e-016 -0 
56.1988 86.4686 52.8419 3.01782 -29.3342 -178.324 1.35125 -31.4745 0.698792 -13.1956 7.94597 3.66823 33.9635 16.3777 -1.35744 -94.8821 23.818 9.7487 12.3713 -2.16419 -15.1987 -1.64979 5.50091 0.833438 89.1495 2.49022 -13.6911 -10.7677 -2.76911 21.5196 0.613684 2.05676 3.74391 1.43526 -37.4085 -12.1217 -1.90245 27.4247 1.72699 0.581471 -19.3997 4.35537 8.493e-019 -1.94126e-019 1.59028e-015 5.53777 -33.0231 13.3249 0.0306081 21.6699 -1.29263 -1.00907 -18.3479 -7.25246 6.21202e-017 0 -0 
56.2203 86.4708 52.8298 3.18131 -29.3314 -178.262 1.41562 -31.5514 0.647091 -13.1735 8.10374 3.86788 34.7314 16.4604 -1.14762 -94.8308 24.7181 9.61442 12.5449 -2.24057 -15.5005 -1.70167 4.40135 0.804344 89.2709 2.46462 -13.8752 -10.8547 -2.81313 21.6854 0.625525 2.18534 3.7485 1.71123 -37.4165 -11.9299 -1.88412 27.4805 1.71152 0.487999 -19.4647 4.23843 2.3697e-022 3.79152e-022 -7.95139e-016 5.72376 -32.9352 13.3842 0.0257575 21.5274 -1.2861 -0.91873 -18.2768 -7.39033 -1.05604e-016 0 -7.95139e-016 
56.2308 86.4744 52.8168 3.24768 -29.3533 -178.278 1.51125 -31.5194 0.660558 -13.3526 7.93357 3.91702 35.6254 16.4465 -1.07433 -94.4416 24.054 9.1908 12.7862 -2.38845 -16.0342 -1.38678 7.63525 0.666325 89.2516 2.57123 -13.883 -10.8364 -2.80806 21.6714 0.63419 2.12848 3.74392 1.83966 -37.5305 -11.8514 -1.89865 27.5756 1.70936 0.455734 -19.4747 4.21797 7.58303e-022 0 -0 5.82163 -32.9476 13.3801 0.0272115 21.4799 -1.28406 -0.888631 -18.2929 -7.22082 -1.86361e-017 0 -7.95139e-016 
56.237 86.4916 52.7798 3.20063 -29.2772 -178.42 1.57686 -31.4191 0.681332 -13.5508 7.84486 4.09889 36.5824 16.4634 -0.90591 -94.7819 25.6047 9.37086 12.8405 -2.40545 -16.0909 -1.55732 3.98617 0.646529 89.2782 2.57824 -14.1119 -10.9455 -2.8606 21.8813 0.633349 2.12199 3.72073 1.81199 -37.373 -11.9795 -1.90822 27.5369 1.70397 0.513264 -19.5026 4.48226 2.35785e-021 -3.79152e-022 -7.95139e-016 5.79248 -32.8181 13.3226 0.0378948 21.4001 -1.28815 -0.8776 -18.3285 -7.11603 -2.54693e-016 0 -7.95139e-016 
56.2544 86.4921 52.7653 3.19409 -29.3228 -178.535 1.59123 -31.5076 0.670304 -13.6155 7.84264 4.27112 37.6132 16.5111 -0.757679 -94.7548 25.9797 9.46585 12.8974 -2.44036 -16.2108 -1.53577 3.856 0.61388 89.273 2.87107 -14.184 -10.9743 -2.88018 21.9401 0.64623 1.92111 3.76178 1.94377 -37.2373 -11.8303 -1.87267 27.4066 1.698 0.47505 -19.6232 4.4069 -3.10601e-018 2.48481e-017 -2.38542e-015 5.89011 -32.5176 13.3659 -0.0161073 21.0611 -1.28319 -0.876438 -18.3618 -7.15112 -1.61513e-016 9.93923e-017 7.95139e-016 
56.2574 86.515 52.7379 3.07624 -29.2777 -178.607 1.52023 -31.4063 0.617307 -13.856 7.68224 4.3977 38.5606 16.5688 -0.56258 -94.8456 26.2165 9.56408 12.8951 -2.44372 -16.1974 -1.71991 3.28597 0.777272 89.2724 3.05698 -14.4306 -11.1118 -2.94486 22.2074 0.617722 1.70214 3.71773 1.88636 -37.1032 -11.7111 -1.85964 27.2726 1.69282 0.473946 -19.6701 4.28593 -3.44836e-034 2.48481e-017 7.95139e-016 5.67716 -32.7999 13.0585 0.0223718 21.3643 -1.29261 -0.775835 -18.401 -6.61043 3.10601e-017 -9.93923e-017 -2.38542e-015 
56.296 86.5177 52.7278 2.88646 -29.2538 -178.743 1.36409 -31.2362 0.494645 -14.0954 7.45495 4.49741 39.5814 16.6878 -0.447498 -94.7982 26.1344 9.56461 12.896 -2.43591 -16.2082 -1.69885 2.8911 0.725697 89.4473 4.25469 -14.7436 -11.4032 -3.09613 22.786 0.616531 0.85244 3.72754 1.78596 -37.0531 -11.629 -1.86281 27.2515 1.69375 0.466141 -19.808 4.22791 -6.89673e-034 4.96962e-017 7.95139e-016 5.40097 -32.8686 12.4956 0.0046469 21.4748 -1.30654 -0.858392 -18.5073 -6.2506 -3.72721e-017 0 1.59028e-015 
56.3248 86.5233 52.7338 3.01732 -29.3106 -178.612 1.45837 -31.2289 0.559333 -14.116 7.49396 4.65182 40.3899 16.8439 -0.235608 -94.7595 26.0854 9.81142 12.8936 -2.43525 -16.2323 -1.68032 3.00811 0.721999 89.6141 5.12091 -15.1955 -11.7653 -3.29206 23.5116 0.613972 0.0289431 3.73977 1.97918 -37.2044 -11.4936 -1.86399 27.331 1.7019 0.407432 -19.8537 4.02548 -6.21202e-018 9.93923e-017 -0 5.48 -32.8452 12.4527 0.00350382 21.3158 -1.30181 -0.796511 -18.4061 -6.39324 7.45443e-017 3.97569e-016 -0 
56.3733 86.4903 52.7616 3.06574 -29.5699 -178.714 1.54996 -31.1563 0.722479 -14.244 7.21128 4.72101 41.3323 16.9877 -0.131826 -94.6064 26.1605 9.87341 12.8814 -2.42662 -16.2189 -1.65999 3.21124 0.639726 89.769 5.94821 -15.3494 -12.1678 -3.51303 24.2971 0.598232 -0.677443 3.75059 2.21071 -37.5196 -11.3514 -1.88226 27.4439 1.70974 0.312132 -19.9081 4.03155 1.86361e-017 -4.96962e-017 -7.95139e-016 5.63936 -33.2546 12.5861 0.016467 21.448 -1.39338 -0.877849 -18.5192 -5.95619 -4.96962e-017 1.98785e-016 -1.59028e-015 
